<svg xmlns="http://www.w3.org/2000/svg" viewBox="0 0 64 64" shape-rendering="crispEdges">
  <rect width="64" height="64" fill="#6f9ff2"/>
  <rect x="8" y="10" width="48" height="44" fill="#000000"/>
  <rect x="11" y="13" width="42" height="38" fill="#ffe877"/>
  <rect x="11" y="13" width="42" height="11" fill="#ff7aa2"/>
  <rect x="25" y="13" width="14" height="11" fill="#7fd8ff"/>
  <rect x="39" y="13" width="14" height="11" fill="#9ee45a"/>
  <rect x="11" y="24" width="42" height="3" fill="#000000"/>
  <rect x="14" y="16" width="12" height="2" fill="#ffffff" opacity=".7"/>
  <rect x="14" y="27" width="2" height="18" fill="#ffffff" opacity=".65"/>
  <rect x="18" y="31" width="4" height="4" fill="#ff586f"/>
  <rect x="28" y="31" width="4" height="4" fill="#2e8df7"/>
  <rect x="38" y="31" width="4" height="4" fill="#28a858"/>
  <rect x="48" y="31" width="4" height="4" fill="#f09b25"/>
  <rect x="18" y="40" width="4" height="4" fill="#7858d6"/>
  <rect x="28" y="40" width="4" height="4" fill="#f24e9d"/>
  <rect x="38" y="40" width="4" height="4" fill="#129eb2"/>
  <rect x="48" y="40" width="4" height="4" fill="#b4c928"/>
  <rect x="40" y="44" width="4" height="4" fill="#116a2c"/>
  <rect x="44" y="48" width="4" height="4" fill="#116a2c"/>
  <rect x="48" y="40" width="4" height="8" fill="#116a2c"/>
  <rect x="52" y="36" width="4" height="4" fill="#116a2c"/>
  <rect x="14" y="49" width="34" height="2" fill="#b48a10"/>
</svg>
